<svg width="122" height="24" viewBox="0 0 122 24" fill="none" xmlns="http://www.w3.org/2000/svg">
<path d="M26.481 18.3458L17.5254 11.4386L23.002 5.87057C23.8042 5.05504 24.1302 3.85301 23.8572 2.71733C23.2668 0.261376 20.3548 -0.595196 18.6309 1.18002L15.5685 4.33365C13.723 6.23407 13.3637 9.21335 14.6999 11.5351L17.9377 17.1609C19.3118 19.5486 21.7535 20.9031 24.3385 20.931C25.6238 20.9448 28.3621 19.7966 26.481 18.3458Z" fill="#13212F"/>
<path d="M0.68089 18.5524L5.90175 13.0818C6.80972 12.1304 14.7544 13.0818 13.3925 14.7467L7.94468 20.4552C6.58152 21.6632 -1.02155 20.4552 0.68089 18.5524Z" fill="#13212F"/>
<path d="M32.0089 17.8909V15.6712H39.5755V17.8909H32.0089ZM33.6048 7.71698H37.6416L41.2089 20.6287H38.4302L36.4024 12.8964L35.6138 9.65928L34.8253 12.8964L32.7599 20.6287H30.0563L33.6048 7.71698Z" fill="#13212F"/>
<path d="M43.9079 10.3807V16.744C43.9079 17.336 44.0643 17.8169 44.3772 18.1869C44.7027 18.5445 45.1283 18.7233 45.654 18.7233C46.2548 18.7233 46.7993 18.5199 47.2874 18.1129C47.7756 17.6936 48.2325 17.0154 48.6581 16.0781L49.0336 18.4089C48.583 19.2598 48.0134 19.8826 47.325 20.2772C46.6366 20.6595 45.9106 20.8506 45.147 20.8506C44.3585 20.8506 43.6763 20.6841 43.1005 20.3512C42.5372 20.0182 42.0991 19.5619 41.7862 18.9823C41.4733 18.3904 41.3168 17.6936 41.3168 16.892V10.3807H43.9079ZM51.005 10.3807V20.6287L48.4327 19.9997V18.6494V10.3807H51.005Z" fill="#13212F"/>
<path d="M56.4827 20.6287C55.8068 20.6287 55.2123 20.4807 54.6991 20.1847C54.1984 19.8887 53.8104 19.4756 53.535 18.9453C53.2721 18.415 53.1407 17.8108 53.1407 17.1325V8.73129C53.1407 8.64292 53.192 8.56259 53.2721 8.52539L55.4092 7.53369C55.5596 7.46387 55.7317 7.57373 55.7317 7.73959V17.1325C55.7317 17.4408 55.7755 17.706 55.8632 17.9279C55.9508 18.1376 56.126 18.2979 56.3889 18.4089C56.6517 18.5199 57.0147 18.5754 57.4778 18.5754H60.2754V20.6287H56.4827ZM50.9627 12.434V10.3807H58.4917V12.434H50.9627Z" fill="#13212F"/>
<path d="M65.2087 20.8506C64.1072 20.8506 63.1559 20.6348 62.3548 20.2032C61.5662 19.7716 60.9591 19.1611 60.5336 18.3719C60.1205 17.5703 59.914 16.6146 59.914 15.5047C59.914 14.3948 60.1205 13.4452 60.5336 12.656C60.9591 11.8544 61.5662 11.2378 62.3548 10.8062C63.1559 10.3745 64.1072 10.1587 65.2087 10.1587C66.8609 10.1587 68.1502 10.6335 69.0764 11.5831C70.0152 12.5326 70.4846 13.8398 70.4846 15.5047C70.4846 16.6146 70.2718 17.5703 69.8462 18.3719C69.4332 19.1611 68.8323 19.7716 68.0438 20.2032C67.2552 20.6348 66.3102 20.8506 65.2087 20.8506ZM65.2087 18.7788C66.0473 18.7788 66.7044 18.489 67.1801 17.9094C67.6683 17.3175 67.9123 16.5159 67.9123 15.5047C67.9123 14.4811 67.6683 13.6795 67.1801 13.0999C66.7044 12.5203 66.0473 12.2305 65.2087 12.2305C64.3575 12.2305 63.6878 12.5203 63.1997 13.0999C62.724 13.6795 62.4862 14.4811 62.4862 15.5047C62.4862 16.5159 62.724 17.3175 63.1997 17.9094C63.6878 18.489 64.3575 18.7788 65.2087 18.7788Z" fill="#13212F"/>
<path d="M75.385 20.8506C74.4337 20.8506 73.5951 20.6965 72.8691 20.3882C72.1431 20.0675 71.5798 19.6174 71.1793 19.0378C70.7912 18.4582 70.591 17.7676 70.5785 16.966H72.9817C72.9692 17.595 73.1757 18.0882 73.6013 18.4459C74.0394 18.8035 74.6277 18.9823 75.3662 18.9823C75.942 18.9823 76.4051 18.8837 76.7556 18.6864C77.1061 18.489 77.2813 18.2116 77.2813 17.8539C77.2813 17.558 77.1624 17.3237 76.9246 17.151C76.6868 16.9784 76.3738 16.8427 75.9858 16.744C75.6103 16.6331 75.191 16.5344 74.7278 16.4481C74.2647 16.3494 73.8016 16.2384 73.3385 16.1151C72.8753 15.9795 72.4498 15.8006 72.0617 15.5787C71.6737 15.3567 71.3608 15.0669 71.1229 14.7093C70.8851 14.3393 70.7662 13.8707 70.7662 13.3034C70.7662 12.6745 70.9477 12.1257 71.3107 11.6571C71.6737 11.1885 72.1806 10.8247 72.8315 10.5657C73.4949 10.2944 74.2585 10.1587 75.1221 10.1587C76.4489 10.1587 77.5191 10.4609 78.3327 11.0651C79.1463 11.6694 79.5907 12.508 79.6658 13.5809H77.2813C77.2438 13.0753 77.031 12.693 76.6429 12.434C76.2674 12.1627 75.7668 12.027 75.1409 12.027C74.5902 12.027 74.1583 12.1319 73.8454 12.3415C73.5325 12.5388 73.376 12.8163 73.376 13.1739C73.376 13.4576 73.4949 13.6795 73.7327 13.8398C73.9706 13.9878 74.2772 14.1112 74.6527 14.2098C75.0408 14.3085 75.4663 14.3948 75.9295 14.4688C76.4051 14.5428 76.8683 14.6476 77.3189 14.7833C77.782 14.9066 78.2013 15.0792 78.5768 15.3012C78.9649 15.5108 79.2778 15.8006 79.5156 16.1706C79.7534 16.5406 79.8723 17.0154 79.8723 17.595C79.8723 18.6185 79.4655 19.4201 78.6519 19.9997C77.8383 20.567 76.7493 20.8506 75.385 20.8506Z" fill="#13212F"/>
<path d="M85.8946 10.1587C86.8083 10.1587 87.6157 10.393 88.3166 10.8617C89.0176 11.3303 89.5621 11.9715 89.9501 12.7855C90.3506 13.587 90.5509 14.4934 90.5509 15.5047C90.5509 16.5036 90.3506 17.41 89.9501 18.2239C89.5621 19.0255 89.0176 19.6667 88.3166 20.1477C87.6157 20.6163 86.8083 20.8506 85.8946 20.8506C85.2562 20.8506 84.6679 20.7335 84.1297 20.4992C83.604 20.2525 83.1596 19.9257 82.7966 19.5188V22.6748C82.7966 22.766 82.742 22.8484 82.6581 22.8839L80.521 23.7879C80.3714 23.8512 80.2056 23.7413 80.2056 23.5788V10.3807H82.7027L82.7591 11.5091C83.1221 11.0898 83.5727 10.763 84.1109 10.5287C84.6491 10.282 85.2437 10.1587 85.8946 10.1587ZM85.2562 18.7418C85.7944 18.7418 86.2638 18.6 86.6644 18.3164C87.0774 18.0328 87.3966 17.6505 87.6219 17.1695C87.8597 16.6762 87.9787 16.1213 87.9787 15.5047C87.9787 14.8757 87.8597 14.3208 87.6219 13.8398C87.3966 13.3466 87.0774 12.9643 86.6644 12.693C86.2638 12.4093 85.7944 12.2675 85.2562 12.2675C84.6929 12.2675 84.1923 12.434 83.7542 12.767C83.3161 13.0876 82.9969 13.5254 82.7966 14.0803V16.9105C82.9969 17.4655 83.3161 17.9094 83.7542 18.2424C84.1923 18.5754 84.6929 18.7418 85.2562 18.7418Z" fill="#13212F"/>
<path d="M96.1366 20.8506C95.0226 20.8506 94.0651 20.6348 93.264 20.2032C92.4754 19.7716 91.8621 19.155 91.424 18.3534C90.9984 17.5518 90.7856 16.6022 90.7856 15.5047C90.7856 14.3825 90.9984 13.4267 91.424 12.6375C91.8621 11.8359 92.4879 11.2254 93.3015 10.8062C94.1151 10.3745 95.0977 10.1587 96.2493 10.1587C98.0392 10.1587 99.341 10.652 100.155 11.6386C100.981 12.6251 101.331 13.9817 101.206 15.7082H92.8509V13.9323H98.5774C98.5274 13.4021 98.2833 12.9766 97.8452 12.656C97.4196 12.323 96.8814 12.1565 96.2305 12.1565C95.2667 12.1565 94.547 12.4525 94.0713 13.0444C93.6082 13.6364 93.3766 14.4934 93.3766 15.6157C93.3766 16.2076 93.483 16.744 93.6958 17.225C93.9086 17.706 94.2153 18.0882 94.6158 18.3719C95.0289 18.6555 95.5358 18.7973 96.1366 18.7973C96.7875 18.7973 97.3382 18.637 97.7889 18.3164C98.252 17.9958 98.5336 17.5826 98.6338 17.077H101.206C101.068 18.2362 100.549 19.155 99.6476 19.8332C98.7464 20.5115 97.5761 20.8506 96.1366 20.8506Z" fill="#13212F"/>
<path d="M108.613 20.6287V14.2653C108.613 13.6734 108.45 13.1986 108.125 12.8409C107.812 12.471 107.393 12.286 106.867 12.286C106.266 12.286 105.722 12.4957 105.233 12.9149C104.745 13.3219 104.288 13.994 103.863 14.9312L103.487 12.6005C103.938 11.7496 104.507 11.133 105.196 10.7507C105.884 10.356 106.61 10.1587 107.374 10.1587C108.162 10.1587 108.838 10.3252 109.402 10.6582C109.977 10.9911 110.422 11.4536 110.735 12.0455C111.047 12.6251 111.204 13.3157 111.204 14.1173V20.6287H108.613ZM101.516 20.6287V10.3807H103.994L104.088 12.36V20.6287H101.516Z" fill="#13212F"/>
<path d="M116.095 10.1587C116.733 10.1587 117.322 10.282 117.86 10.5287C118.411 10.763 118.868 11.0836 119.23 11.4906V8.71164C119.23 8.63368 119.271 8.56117 119.336 8.5196L121.436 7.19639C121.587 7.10113 121.784 7.20976 121.784 7.38843V20.6287L119.268 20.1477V19.4633C118.905 19.8826 118.448 20.2217 117.897 20.4807C117.359 20.7273 116.758 20.8506 116.095 20.8506C115.194 20.8506 114.393 20.6163 113.692 20.1477C112.991 19.6667 112.44 19.0255 112.039 18.2239C111.639 17.41 111.439 16.5036 111.439 15.5047C111.439 14.4934 111.639 13.587 112.039 12.7855C112.44 11.9715 112.991 11.3303 113.692 10.8617C114.393 10.393 115.194 10.1587 116.095 10.1587ZM116.733 18.7418C117.309 18.7418 117.816 18.5754 118.254 18.2424C118.705 17.8971 119.03 17.4408 119.23 16.8735V14.1173C119.03 13.5377 118.705 13.0876 118.254 12.767C117.816 12.434 117.309 12.2675 116.733 12.2675C116.208 12.2675 115.738 12.4093 115.325 12.693C114.912 12.9643 114.593 13.3466 114.368 13.8398C114.142 14.3208 114.03 14.8757 114.03 15.5047C114.03 16.1213 114.142 16.6762 114.368 17.1695C114.593 17.6505 114.912 18.0328 115.325 18.3164C115.738 18.6 116.208 18.7418 116.733 18.7418Z" fill="#13212F"/>
</svg>
